/* XPM */
static char *Boxed_SS[] = {
/* columns rows colors chars-per-pixel */
"32 32 8 1 ",
"  c None",
". c black",
"X c #6C3900",
"o c #696A6A",
"O c #804400",
"+ c #975000",
"@ c #9B570B",
"# c #EEC39A",
/* pixels */
"                                ",
"                                ",
"                                ",
"                                ",
"                                ",
"                                ",
"                                ",
"                                ",
"                                ",
"    ++++++++++++++++++++++OO    ",
"    ++++++++@@@@@@@+++++++OO    ",
"    +++++++@@@@@@@@@++++++OO    ",
"    X###X#XX#X#XX#X#XX#X#XOO    ",
"    +#+++#++#+#++#+#++#+#+OO    ",
"    X###X####X####X####X#XOO    ",
"    +++#+#@@#@#@@#@#++#+++OO    ",
"    X###X#XX#X#XX#X#XX#X#XOO    ",
"    +++++++@@@@@@@@@++++++OO    ",
"    +XXXXXXXXXXXXXXXXXXXXXOO    ",
"    +XXXXXXXXXXXXXXXXXXXXXOO    ",
"    +@@@@@@@@@@@@@@@@@@@@@OO    ",
"    +@@@@@@@@@@@@@@@@@@@@@OO    ",
"    ++++++++++++++++++++++OO    ",
"   +++ooooooo    ooooooo  ++    ",
"  +++ ooooooo    ooooooo  +++   ",
"  ++  ooooooo    ooooooo   +++  ",
"      ooooooo    ooooooo    ++  ",
"      .........  .........      ",
"      .........  .........      ",
"      .........  .........      ",
"      .........  .........      ",
"      .........  .........      "
};
