/* XPM */
static char *e323e9d7f6be48b5db44540c6f22f89dsNE9zqU7UhsLrsZ7[] = {
/* columns rows colors chars-per-pixel */
"32 64 10 1 ",
"  c None",
". c black",
"X c #8A0505",
"o c #A80F0F",
"O c red",
"+ c #8F563B",
"@ c #DB4500",
"# c #E9A86A",
"$ c #0000A8",
"% c #006AA8",
/* pixels */
"                                ",
"                                ",
"                          +++   ",
"                        +++++   ",
"                        +++++   ",
"                       ++++++   ",
"                       +++++    ",
"                      +++++     ",
"            @@@@@   +++++++     ",
"           @@@@@++++++++++      ",
"          @@+++++++++++++       ",
"         @@+++++++++++++        ",
"         @@+++++++++++          ",
"        @@+###+#+++#+           ",
"        @@..........@           ",
"       @@@@#...#...#@@          ",
"       @@@@#...#...#@@          ",
"       @@@@#########@@          ",
"           #########            ",
"           #########            ",
"            #######             ",
"              ###               ",
"              ###               ",
"           %%%%%%%%%%           ",
"          %%%%%%%%%%%           ",
"          %%%%%%%%%%%%          ",
"          %%%%%%%%%%%%          ",
"          %%%%%%%%%%%%%         ",
"          %%%%%%%%%%%%%         ",
"         %%%%%%%%%%%%%%         ",
"         %%%%%%%%%%%%%%         ",
"         %%%%%%%%%%%%%%         ",
"         %%%%%%%%%%%%%%         ",
"         %%%%%%%%%%%%%%         ",
"         %%%%%%%%%%%%%%         ",
"         %%%%%%%%%%%%%%         ",
"         %%%%%%%%%%%%%%         ",
"         %%%%%%%%%%%%%%         ",
"        %%%%%%%%%%%%%%%         ",
"        %%%%%%%%%%%%%%%         ",
"       %%%%%%%%%%%%%%%%         ",
"       %%%%%%%%%%%%%%%%         ",
"       %%%%%%XXXXXXXX%%%        ",
"        X%%%XXXXXXXXXXX%        ",
"        XXXXXXXXXXXXXXX         ",
"        XXXXXX  XXXXXXX         ",
"        XXXXXX  XXXXXXX         ",
"        XXXXXX  XXXXXXX         ",
"        XXXXXX  XXXXXXX         ",
"        XXXXXXX   ###           ",
"        XXXXXXX   ###           ",
"          ###     ###           ",
"          ###     ###           ",
"          ###     OOO           ",
"          ###     OOO           ",
"          OOO    oOOOo  $$$$$$$ ",
"          OOO    ooo$$$$$$$$$$$ ",
"        o.OOO    $$$$$$$$$$$$$  ",
" $$$   oooooo $$$$$$$$$$$$$$$   ",
" $$$$$$$$$$$$$$$$$$$$$$$$       ",
" $$$$$$$$$$$$$$$$$$$$$$         ",
"  $$$$$$$$$$$$$                 ",
"   $$$$                         ",
"                                "
};
