/* XPM */
static char *Limit_Square[] = {
/* columns rows colors chars-per-pixel */
"64 64 3 1 ",
"  c None",
". c black",
"X c #E13FFF",
/* pixels */
"XXXXXXXXXXXXXXXXXXXXXXXXXXXXXXXXXXXXXXXXXXXXXXXXXXXXXXXXXXXXXXXX",
"XXXXXXXXXXXXXXXXXXXXXXXXXXXXXXXXXXXXXXXXXXXXXXXXXXXXXXXXXXXXXXXX",
"XX............................................................XX",
"XX............................................................XX",
"XX..XXXXXXXXXXXXXXXXXXXXXXXXXXXXXXXXXXXXXXXXXXXXXXXXXXXXXXXX..XX",
"XX..XXXXXXXXXXXXXXXXXXXXXXXXXXXXXXXXXXXXXXXXXXXXXXXXXXXXXXXX..XX",
"XX..XX                                                    XX..XX",
"XX..XX                                                    XX..XX",
"XX..XX                                                    XX..XX",
"XX..XX                                                    XX..XX",
"XX..XX                                                    XX..XX",
"XX..XX                                                    XX..XX",
"XX..XX                                                    XX..XX",
"XX..XX                                                    XX..XX",
"XX..XX                                                    XX..XX",
"XX..XX                                                    XX..XX",
"XX..XX                                                    XX..XX",
"XX..XX                                                    XX..XX",
"XX..XX                                                    XX..XX",
"XX..XX                                                    XX..XX",
"XX..XX                                                    XX..XX",
"XX..XX                                                    XX..XX",
"XX..XX                                                    XX..XX",
"XX..XX                                                    XX..XX",
"XX..XX                                                    XX..XX",
"XX..XX                                                    XX..XX",
"XX..XX                                                    XX..XX",
"XX..XX                                                    XX..XX",
"XX..XX                                                    XX..XX",
"XX..XX                                                    XX..XX",
"XX..XX                                                    XX..XX",
"XX..XX                                                    XX..XX",
"XX..XX                                                    XX..XX",
"XX..XX                                                    XX..XX",
"XX..XX                                                    XX..XX",
"XX..XX                                                    XX..XX",
"XX..XX                                                    XX..XX",
"XX..XX                                                    XX..XX",
"XX..XX                                                    XX..XX",
"XX..XX                                                    XX..XX",
"XX..XX                                                    XX..XX",
"XX..XX                                                    XX..XX",
"XX..XX                                                    XX..XX",
"XX..XX                                                    XX..XX",
"XX..XX                                                    XX..XX",
"XX..XX                                                    XX..XX",
"XX..XX                                                    XX..XX",
"XX..XX                                                    XX..XX",
"XX..XX                                                    XX..XX",
"XX..XX                                                    XX..XX",
"XX..XX                                                    XX..XX",
"XX..XX                                                    XX..XX",
"XX..XX                                                    XX..XX",
"XX..XX                                                    XX..XX",
"XX..XX                                                    XX..XX",
"XX..XX                                                    XX..XX",
"XX..XX                                                    XX..XX",
"XX..XX                                                    XX..XX",
"XX..XXXXXXXXXXXXXXXXXXXXXXXXXXXXXXXXXXXXXXXXXXXXXXXXXXXXXXXX..XX",
"XX..XXXXXXXXXXXXXXXXXXXXXXXXXXXXXXXXXXXXXXXXXXXXXXXXXXXXXXXX..XX",
"XX............................................................XX",
"XX............................................................XX",
"XXXXXXXXXXXXXXXXXXXXXXXXXXXXXXXXXXXXXXXXXXXXXXXXXXXXXXXXXXXXXXXX",
"XXXXXXXXXXXXXXXXXXXXXXXXXXXXXXXXXXXXXXXXXXXXXXXXXXXXXXXXXXXXXXXX"
};
