/* XPM */
static char *Octopuss[] = {
/* columns rows colors chars-per-pixel */
"64 64 9 1 ",
"  c #222034",
". c #272735",
"X c #2C2C3B",
"o c #2C2C3C",
"O c #501D63",
"+ c #BA5B19",
"@ c #DF7126",
"# c #76428A",
"$ c #8D5E9F",
/* pixels */
"              ..    ..        ..                      ..        ",
"              ..    ..        ..                      ..        ",
"  ooooXXoooooooooooooo..ooooooooooooooooXXoooooo..XXXXoooooooo  ",
"  ooooXXoooooooooooooo..ooooooooooooooooXXoooooo..XXXXoooooooo  ",
"  ooooXXoo..oo..ooooooooooooooooooXX..ooooXX..XXoooooo....oooo  ",
"  ooooXXoo..oo..ooooooooooooooooooXX..ooooXX..XXoooooo....oooo  ",
"  oooooooooooooooooooooooo############oooooooooooooooooooooooo  ",
"  oooooooooooooooooooooooo############oooooooooooooooooooooooo  ",
"  oooooooooooooooooooooo########OO##OO##oooooooooooooooooooooo  ",
"  oooooooooooooooooooooo########OO##OO##oooooooooooooooooooooo  ",
"  oooooooooooooooooooo########OO##OOOOoooooooooooooooooooooooo..",
"  oooooooooooooooooooo########OO##OOOOoooooooooooooooooooooooo..",
"  oooooooooooooooooooo######OOoooooooooooooooooooooooooooooooo  ",
"  oooooooooooooooooooo######OOoooooooooooooooooooooooooooooooo  ",
"  XXoooooooooooooooooooo######OOoooooooooooooooooooooooooooooo  ",
"  XXoooooooooooooooooooo######OOoooooooooooooooooooooooooooooo  ",
"  oooooooooooooooooooooooo########OO##ooooooooooooooooooooXXoo  ",
"  oooooooooooooooooooooooo########OO##ooooooooooooooooooooXXoo  ",
"  oooooooooooooooooooooooooo######$$OO####ooooooooooooooooXXoo  ",
"  oooooooooooooooooooooooooo######$$OO####ooooooooooooooooXXoo  ",
"  ..oooooooooooooooooooooooooo########OOOO##ooooooooooooooXXoo  ",
"  ..oooooooooooooooooooooooooo########OOOO##oooooooooooooooXoo  ",
"  oooooooooooooooooooooooooooooo######OO$$OO##oooooooooooo..oo  ",
"  oooooooooooooooooooooooooooooo######OO$$OO##oooooooooooo..oo  ",
"  XXoooooooooooooooooooooooooo++########OO$$##++++oooooooooooo  ",
"  XXoooooooooooooooooooooooooo++########OO$$##++++oooooooooooo  ",
"  oooooooooooooooooo++++++++++@@++######OOOO##@@++++++++oo..oo  ",
"  oooooooooooooooooo++++++++++@@++######OOOO##@@++++++++oo..oo  ",
"  ....oooooooo++++++++@@@@@@@@@@@@########OO##@@@@@@@@@@++oooo  ",
"  ....oooooooo++++++++@@@@@@@@@@@@########OO##@@@@@@@@@@++oooo  ",
"  oooooooo++++++@@@@@@@@@@@@@@@@########OO##@@@@@@@@@@@@++oooo  ",
"  oooooooo++++++@@@@@@@@@@@@@@@@########OO##@@@@@@@@@@@@++oooo  ",
"  oooooooo++@@@@@@@@@@@@@@@@@@##########OO##@@@@@@@@@@@@++oooo  ",
"  oooooooo++@@@@@@@@@@@@@@@@@@##########OO##@@@@@@@@@@@@++oooo  ",
"  oooooo++@@@@@@@@@@@@@@@@@@############OO##@@@@@@@@@@++++oooo..",
"  oooooo++@@@@@@@@@@@@@@@@@@############OO##@@@@@@@@@@++++oooo..",
"  oooooo++++@@@@@@@@@@@@@@@@##########OO##@@@@@@@@++++++oooooo  ",
"  oooooo++++@@@@@@@@@@@@@@@@##########OO##@@@@@@@@++++++oooooo  ",
"  oooooooo++++++++++++@@@@@@@@####@@@@@@@@@@@@@@@@++++ooooXXoo  ",
"  oooooooo++++++++++++@@@@@@@@####@@@@@@@@@@@@@@@@++++ooooXXoo  ",
"  oooooooooooooooooo++++++++++++++++++++++++++++++++oooooooooo  ",
"  oooooooooooooooooo++++++++++++++++++++++++++++++++oooooooooo  ",
"  oooooooooooooooooooooooooooooooooooooooooooooooooooooooooooo..",
"  oooooooooooooooooooooooooooooooooooooooooooooooooooooooooooo..",
"  ooooooooooooooooooooooooooooooooXX..oooooo....oooooooooooooo  ",
"  ooooooooooooooooooooooooooooooooXX..oooooo....oooooooooooooo  ",
"  oooo....ooooooooooXX..ooooXXoooo..oo..ooooooXXoo..oo..oo..oo  ",
"  oooo....ooooooooooXX..ooooXXoooo..oo..ooooooXXoo..oo..oo..oo  ",
"  oo..ooooooooooooooooooXXooXXXX..oooooooo......oooooooo....oo  ",
"  oo..ooooooooooooooooooXXooXXXX..oooooooo......oooooooo....oo  ",
"  ..oooooooooooooooooooo..XXoooooooooooooooooo..oooooooooooooo  ",
"  ..oooooooooooooooooooo..XXoooooooooooooooooo..oooooooooooooo  ",
"  oooooooooooooooo..oooooooooooooooooooooooo....oooooooooooooo  ",
"  oooooooooooooooo..oooooooooooooooooooooooo....oooooooooooooo  ",
"  oooooo..oooooooooooooooooooooooooooooooooooooooooooooooooooo  ",
"  oooooo..oooooooooooooooooooooooooooooooooooooooooooooooooooo  ",
"  oooooooooo..oooooo..oooooooooooo..oooooooo....oooooooooooooo  ",
"  oooooooooo..oooooo..oooooooooooo..oooooooo....oooooooooooooo  ",
"  oooooooooooooooooooooooo..oooooooooooooo..oooo..oo..oooooooo  ",
"  oooooooooooooooooooooooo..oooooooooooooo..oooo..oo..oooooooo  ",
"  oooooo..oooooooooo..oo..oooooo..oooooooooooooooooooooooooooo..",
"  oooooo..oooooooooo..oo..oooooo..oooooooooooooooooooooooooooo..",
"                        ..                                      ",
"                        ..                                      "
};
