/* XPM */
static char *Destoyed_Ground[] = {
/* columns rows colors chars-per-pixel */
"64 64 2 1 ",
"  c black",
". c #2D2C3E",
/* pixels */
"................................................................",
"................................................................",
"........      ............          ......................    ..",
"........      ............          ......................    ..",
"..  ..          ..........            ........                ..",
"..  ..          ..........            ........                ..",
"..                ....                  ..                    ..",
"..                ....                  ..                    ..",
"..                ..                                          ..",
"..                ..                                          ..",
"..                                                          ....",
"..                                                          ....",
"..                                                          ....",
"..                                                          ....",
"....                                                        ....",
"....                                                        ....",
"......                                                      ....",
"......                                                      ....",
"..........                                                ......",
"..........                                                ......",
"..........                                                ......",
"..........                                                ......",
"........                                                  ......",
"........                                                  ......",
"......                                                  ........",
"......                                                  ........",
"......                                                  ..  ....",
"......                                                  ..  ....",
"....                                                  ....    ..",
"....                                                  ....    ..",
"..                                                    ....    ..",
"..                                                    ....    ..",
"..                                                    ..........",
"..                                                    ..........",
"..                                                  ............",
"..                                                  ............",
"..                                                  ............",
"..                                                  ............",
"..                                                        ......",
"..                                                        ......",
"..                                                          ....",
"..                                                          ....",
"..                                                          ....",
"..                                                          ....",
"....                                                        ....",
"....                                                        ....",
"..  ..                                                      ....",
"..  ..                                                      ....",
"..  ....                                                    ....",
"..  ....                                                    ....",
"..    ......                                              ......",
"..    ......                                              ......",
"..        ......                                        ....  ..",
"..        ......                                        ....  ..",
"..            ....                        ..........  ..........",
"..            ....                        ..........  ..........",
"..        ..........                    ........................",
"..        ..........                    ........................",
"..          ..............          ............................",
"..          ..............          ............................",
"..            ............          ............................",
"..            ............          ............................",
"................................................................",
"................................................................"
};
