/* XPM */
static char *Ground3[] = {
/* columns rows colors chars-per-pixel */
"64 64 3 1 ",
"  c #222034",
". c #2D2C3E",
"X c #323C39",
/* pixels */
"                  XX                                            ",
"                  XX                                            ",
"  ........................XX....XX............................  ",
"  ........................XX....XX............................  ",
"  ..............XX..................XXXX........XX..XX........  ",
"  ..............XX..................XXXX........XX..XX........  ",
"  ..................................XX........................  ",
"  ..................................XX........................  ",
"  ..........XXXX....................XX................XX......  ",
"  ..........XXXX....................XX................XX......  ",
"  ......XX........XX....XX..XXXX..............XX..............  ",
"  ......XX........XX....XX..XXXX..............XX..............  ",
"  ......XX............XX......XX....................XX........  ",
"  ......XX............XX......XX....................XX........  ",
"  ........................XXXX......XXXX..............XX......  ",
"  ........................XXXX......XXXX..............XX......  ",
"  ..XX..............XX..................XX..XX..XX............  ",
"  ..XX..............XX..................XX..XX..XX............  ",
"  XX........XX....XX..XX....XXXX..XXXX..XX....XX..............  ",
"  XX........XX....XX..XX....XXXX..XXXX..XX....XX..............  ",
"  ........XX......XXXX..XX......XXXX..XXXX..XXXX..XX..........  ",
"  ........XX......XXXX..XX......XXXX..XXXX..XXXX..XX..........  ",
"  ................XX....XX....XX....XX........................  ",
"  ................XX....XX....XX....XX........................  ",
"  ..XX....XXXX............XX..........XXXXXX..XX..............  ",
"  ..XX....XXXX............XX..........XXXXXX..XX..............  ",
"  XX..........XXXX..XXXX..XXXXXX......XX......................XX",
"  XX..........XXXX..XXXX..XXXXXX......XX......................XX",
"  ....XX..........XXXX....XX..XXXX..XX..XX....XX..XXXX........  ",
"  ....XX..........XXXX....XX..XXXX..XX..XX....XX..XXXX........  ",
"XX..........XXXXXX..XXXXXXXXXXXXXXXX..XX....XX......XX........XX",
"XX..........XXXXXX..XXXXXXXXXXXXXXXX..XX....XX......XX........XX",
"  ....XX....XX..........XXXXXXXX....XX......XX..........XX..XX  ",
"  ....XX....XX..........XXXXXXXX....XX......XX..........XX..XX  ",
"  ............XX..........XX..XXXXXXXX..XX..XXXX..XXXX......XX  ",
"  ............XX..........XX..XXXXXXXX..XX..XXXX..XXXX......XX  ",
"  XX..................XXXXXX..XX......XX....XX......XX........  ",
"  XX..................XXXXXX..XX......XX....XX......XX........  ",
"  ........XX..............XXXX..XX......XXXX..........XX..XX..  ",
"  ........XX..............XXXX..XX......XXXX..........XX..XX..  ",
"  ................XXXXXX....XXXX..XX....XX..XX................  ",
"  ................XXXXXX....XXXX..XX....XX..XX................  ",
"  ..............XXXX..........XX..XX..XXXXXX..XX..XX........XXXX",
"  ..............XXXX..........XX..XX..XXXXXX..XX..XX........XXXX",
"  ..........XX................XX........XX..............XX....  ",
"  ..........XX................XX........XX..............XX....  ",
"  ..........XX..................XX................XX..........  ",
"  ..........XX..................XX................XX..........  ",
"  ..........XX......XX....XX......XX....XX....XXXX..XX........  ",
"  ..........XX......XX....XX......XX....XX....XXXX..XX........  ",
"  ..................XX..XX..................XX..XX............  ",
"  ..................XX..XX..................XX..XX............  ",
"  ......XX............XX..XX..XXXX..........XX......XXXX......  ",
"  ......XX............XX..XX..XXXX..........XX......XXXX......  ",
"  ............XX......XXXXXX..................XX..............  ",
"  ............XX......XXXXXX..................XX..............  ",
"  ................XX..........XX....XX........................  ",
"  ................XX..........XX....XX........................  ",
"  ..........XX..XX............................................  ",
"  ..........XX..XX............................................  ",
"  ..................XX....XX......XXXXXX......................  ",
"  ..................XX....XX......XXXXXX......................  ",
"                        XX      XX                              ",
"                        XX      XX                              "
};
