/* XPM */
static char *Ground4[] = {
/* columns rows colors chars-per-pixel */
"64 64 4 1 ",
"  c #222034",
". c #2D2C3E",
"X c #042868",
"o c #254D93",
/* pixels */
"                                                                ",
"                                                                ",
"  ............................................................  ",
"  ............................................................  ",
"  ............................................................  ",
"  ............................................................  ",
"  ............................................................  ",
"  ............................................................  ",
"  ............................................................  ",
"  ............................................................  ",
"  ............................................................  ",
"  ............................................................  ",
"  ............................................................  ",
"  ............................................................  ",
"  ............................................................  ",
"  ............................................................  ",
"  ............................................................  ",
"  ............................................................  ",
"  ......................oooooooooooooooooo....................  ",
"  ......................oooooooooooooooooo....................  ",
"  ................ooooooooooooooXXoooooooooooooo..............  ",
"  ................ooooooooooooooXXoooooooooooooo..............  ",
"  ............oooooooooooooooooooooooooooooooooooooo..........  ",
"  ............oooooooooooooooooooooooooooooooooooooo..........  ",
"  ..........oooooooooooooooooooooooooooooooooooooooooo........  ",
"  ..........oooooooooooooooooooooooooooooooooooooooooo........  ",
"  ........oooooooooooooooooooooooooooooooooooooooooooooo......  ",
"  ........oooooooooooooooooooooooooooooooooooooooooooooo......  ",
"  ......oooooooooooooooooooooooooooooooooooooooooooooooooo....  ",
"  ......oooooooooooooooooooooooooooooooooooooooooooooooooo....  ",
"  ......ooooooXXooooooXXooooooooooooooooooXXoooooooooooooo....  ",
"  ......ooooooXXooooooXXooooooooooooooooooXXoooooooooooooo....  ",
"  ......ooooXXoooooooooooooooooooooooooooooooooooooooooooo....  ",
"  ......ooooXXoooooooooooooooooooooooooooooooooooooooooooo....  ",
"  ........ooooooooooooooooooooooooooXXoooooooooooooooooo......  ",
"  ........ooooooooooooooooooooooooooXXoooooooooooooooooo......  ",
"  ..........oooooooooooooooooooooooooooooooooooooooooo........  ",
"  ..........oooooooooooooooooooooooooooooooooooooooooo........  ",
"  ............ooooooooooooooooXXooooooooooXXoooooooo..........  ",
"  ............ooooooooooooooooXXooooooooooXXoooooooo..........  ",
"  ................ooooooooXXoooooooooooooooooooo..............  ",
"  ................ooooooooXXoooooooooooooooooooo..............  ",
"  ......................oooooooooooooooooo....................  ",
"  ......................oooooooooooooooooo....................  ",
"  ............................................................  ",
"  ............................................................  ",
"  ............................................................  ",
"  ............................................................  ",
"  ............................................................  ",
"  ............................................................  ",
"  ............................................................  ",
"  ............................................................  ",
"  ............................................................  ",
"  ............................................................  ",
"  ............................................................  ",
"  ............................................................  ",
"  ............................................................  ",
"  ............................................................  ",
"  ............................................................  ",
"  ............................................................  ",
"  ............................................................  ",
"  ............................................................  ",
"                                                                ",
"                                                                "
};
