/* XPM */
static char *Boxed_SSS2[] = {
/* columns rows colors chars-per-pixel */
"128 128 8 1 ",
"  c None",
". c black",
"X c #6C3900",
"o c #696A6A",
"O c #804400",
"+ c #975000",
"@ c #9B570B",
"# c #EEC39A",
/* pixels */
"                                                                                                                                ",
"                                                                                                                                ",
"                                                                                                                                ",
"                                                                                                                                ",
"                                                                                                                                ",
"                                                                                                                                ",
"                                                                                                                                ",
"                                                                                                                                ",
"                                                                                                                                ",
"                                                                                                                                ",
"                                                                                                                                ",
"                                                                                                                                ",
"                                                                                                                                ",
"                                                                                                                                ",
"                                                                                                                                ",
"                                                                                                                                ",
"                                                                                                                                ",
"                                                                                                                                ",
"                                                                                                                                ",
"                                                                                                                                ",
"                                                                                                                                ",
"                                                                                                                                ",
"                                                                                                                                ",
"                                                                                                                                ",
"                                                                                                                                ",
"                                                                                                                                ",
"                                                                                                                                ",
"                                                                                                                                ",
"                                                                                                                                ",
"                                                                                                                                ",
"                                                                                                                                ",
"                                                                                                                                ",
"                                                                                                                                ",
"                                                                                                                                ",
"                                                                                                                                ",
"                                                                                                                                ",
"                                                                                                                                ",
"                                                                                                                                ",
"                                                                                                                                ",
"                                                                                                                                ",
"                ++++++++++++++++++++++++++++++++++++++++++++++++++++++++++++++++++++++++++++++++++++++++OOOOOOOO                ",
"                ++++++++++++++++++++++++++++++++++++++++++++++++++++++++++++++++++++++++++++++++++++++++OOOOOOOO                ",
"                ++++++++++++++++++++++++++++++++++++++++++++++++++++++++++++++++++++++++++++++++++++++++OOOOOOOO                ",
"                ++++++++++++++++++++++++++++++++++++++++++++++++++++++++++++++++++++++++++++++++++++++++OOOOOOOO                ",
"                ++++++++++++++++++++++++++++++++@@@@@@@@@@@@@@@@@@@@@@@@@@@@++++++++++++++++++++++++++++OOOOOOOO                ",
"                ++++++++++++++++++++++++++++++++@@@@@@@@@@@@@@@@@@@@@@@@@@@@++++++++++++++++++++++++++++OOOOOOOO                ",
"                ++++++++++++++++++++++++++++++++@@@@@@@@@@@@@@@@@@@@@@@@@@@@++++++++++++++++++++++++++++OOOOOOOO                ",
"                ++++++++++++++++++++++++++++++++@@@@@@@@@@@@@@@@@@@@@@@@@@@@++++++++++++++++++++++++++++OOOOOOOO                ",
"                ++++++++++++++++++++++++++++@@@@@@@@@@@@@@@@@@@@@@@@@@@@@@@@@@@@++++++++++++++++++++++++OOOOOOOO                ",
"                ++++++++++++++++++++++++++++@@@@@@@@@@@@@@@@@@@@@@@@@@@@@@@@@@@@++++++++++++++++++++++++OOOOOOOO                ",
"                ++++++++++++++++++++++++++++@@@@@@@@@@@@@@@@@@@@@@@@@@@@@@@@@@@@++++++++++++++++++++++++OOOOOOOO                ",
"                ++++++++++++++++++++++++++++@@@@@@@@@@@@@@@@@@@@@@@@@@@@@@@@@@@@++++++++++++++++++++++++OOOOOOOO                ",
"                XXXX############XXXX####XXXXXXXX####XXXX####XXXXXXXX####XXXX####XXXXXXXX####XXXX####XXXXOOOOOOOO                ",
"                XXXX############XXXX####XXXXXXXX####XXXX####XXXXXXXX####XXXX####XXXXXXXX####XXXX####XXXXOOOOOOOO                ",
"                XXXX############XXXX####XXXXXXXX####XXXX####XXXXXXXX####XXXX####XXXXXXXX####XXXX####XXXXOOOOOOOO                ",
"                XXXX############XXXX####XXXXXXXX####XXXX####XXXXXXXX####XXXX####XXXXXXXX####XXXX####XXXXOOOOOOOO                ",
"                ++++####++++++++++++####++++++++####++++####++++++++####++++####++++++++####++++####++++OOOOOOOO                ",
"                ++++####++++++++++++####++++++++####++++####++++++++####++++####++++++++####++++####++++OOOOOOOO                ",
"                ++++####++++++++++++####++++++++####++++####++++++++####++++####++++++++####++++####++++OOOOOOOO                ",
"                ++++####++++++++++++####++++++++####++++####++++++++####++++####++++++++####++++####++++OOOOOOOO                ",
"                XXXX############XXXX################XXXX################XXXX################XXXX####XXXXOOOOOOOO                ",
"                XXXX############XXXX################XXXX################XXXX################XXXX####XXXXOOOOOOOO                ",
"                XXXX############XXXX################XXXX################XXXX################XXXX####XXXXOOOOOOOO                ",
"                XXXX############XXXX################XXXX################XXXX################XXXX####XXXXOOOOOOOO                ",
"                ++++++++++++####++++####@@@@@@@@####@@@@####@@@@@@@@####@@@@####++++++++####++++++++++++OOOOOOOO                ",
"                ++++++++++++####++++####@@@@@@@@####@@@@####@@@@@@@@####@@@@####++++++++####++++++++++++OOOOOOOO                ",
"                ++++++++++++####++++####@@@@@@@@####@@@@####@@@@@@@@####@@@@####++++++++####++++++++++++OOOOOOOO                ",
"                ++++++++++++####++++####@@@@@@@@####@@@@####@@@@@@@@####@@@@####++++++++####++++++++++++OOOOOOOO                ",
"                XXXX############XXXX####XXXXXXXX####XXXX####XXXXXXXX####XXXX####XXXXXXXX####XXXX####XXXXOOOOOOOO                ",
"                XXXX############XXXX####XXXXXXXX####XXXX####XXXXXXXX####XXXX####XXXXXXXX####XXXX####XXXXOOOOOOOO                ",
"                XXXX############XXXX####XXXXXXXX####XXXX####XXXXXXXX####XXXX####XXXXXXXX####XXXX####XXXXOOOOOOOO                ",
"                XXXX############XXXX####XXXXXXXX####XXXX####XXXXXXXX####XXXX####XXXXXXXX####XXXX####XXXXOOOOOOOO                ",
"                ++++++++++++++++++++++++++++@@@@@@@@@@@@@@@@@@@@@@@@@@@@@@@@@@@@++++++++++++++++++++++++OOOOOOOO                ",
"                ++++++++++++++++++++++++++++@@@@@@@@@@@@@@@@@@@@@@@@@@@@@@@@@@@@++++++++++++++++++++++++OOOOOOOO                ",
"                ++++++++++++++++++++++++++++@@@@@@@@@@@@@@@@@@@@@@@@@@@@@@@@@@@@++++++++++++++++++++++++OOOOOOOO                ",
"                ++++++++++++++++++++++++++++@@@@@@@@@@@@@@@@@@@@@@@@@@@@@@@@@@@@++++++++++++++++++++++++OOOOOOOO                ",
"                ++++XXXXXXXXXXXXXXXXXXXXXXXXXXXXXXXXXXXXXXXXXXXXXXXXXXXXXXXXXXXXXXXXXXXXXXXXXXXXXXXXXXXXOOOOOOOO                ",
"                ++++XXXXXXXXXXXXXXXXXXXXXXXXXXXXXXXXXXXXXXXXXXXXXXXXXXXXXXXXXXXXXXXXXXXXXXXXXXXXXXXXXXXXOOOOOOOO                ",
"                ++++XXXXXXXXXXXXXXXXXXXXXXXXXXXXXXXXXXXXXXXXXXXXXXXXXXXXXXXXXXXXXXXXXXXXXXXXXXXXXXXXXXXXOOOOOOOO                ",
"                ++++XXXXXXXXXXXXXXXXXXXXXXXXXXXXXXXXXXXXXXXXXXXXXXXXXXXXXXXXXXXXXXXXXXXXXXXXXXXXXXXXXXXXOOOOOOOO                ",
"                ++++XXXXXXXXXXXXXXXXXXXXXXXXXXXXXXXXXXXXXXXXXXXXXXXXXXXXXXXXXXXXXXXXXXXXXXXXXXXXXXXXXXXXOOOOOOOO                ",
"                ++++XXXXXXXXXXXXXXXXXXXXXXXXXXXXXXXXXXXXXXXXXXXXXXXXXXXXXXXXXXXXXXXXXXXXXXXXXXXXXXXXXXXXOOOOOOOO                ",
"                ++++XXXXXXXXXXXXXXXXXXXXXXXXXXXXXXXXXXXXXXXXXXXXXXXXXXXXXXXXXXXXXXXXXXXXXXXXXXXXXXXXXXXXOOOOOOOO                ",
"                ++++XXXXXXXXXXXXXXXXXXXXXXXXXXXXXXXXXXXXXXXXXXXXXXXXXXXXXXXXXXXXXXXXXXXXXXXXXXXXXXXXXXXXOOOOOOOO                ",
"                ++++@@@@@@@@@@@@@@@@@@@@@@@@@@@@@@@@@@@@@@@@@@@@@@@@@@@@@@@@@@@@@@@@@@@@@@@@@@@@@@@@@@@@OOOOOOOO                ",
"                ++++@@@@@@@@@@@@@@@@@@@@@@@@@@@@@@@@@@@@@@@@@@@@@@@@@@@@@@@@@@@@@@@@@@@@@@@@@@@@@@@@@@@@OOOOOOOO                ",
"                ++++@@@@@@@@@@@@@@@@@@@@@@@@@@@@@@@@@@@@@@@@@@@@@@@@@@@@@@@@@@@@@@@@@@@@@@@@@@@@@@@@@@@@OOOOOOOO                ",
"                ++++@@@@@@@@@@@@@@@@@@@@@@@@@@@@@@@@@@@@@@@@@@@@@@@@@@@@@@@@@@@@@@@@@@@@@@@@@@@@@@@@@@@@OOOOOOOO                ",
"                ++++@@@@@@@@@@@@@@@@@@@@@@@@@@@@@@@@@@@@@@@@@@@@@@@@@@@@@@@@@@@@@@@@@@@@@@@@@@@@@@@@@@@@OOOOOOOO                ",
"                ++++@@@@@@@@@@@@@@@@@@@@@@@@@@@@@@@@@@@@@@@@@@@@@@@@@@@@@@@@@@@@@@@@@@@@@@@@@@@@@@@@@@@@OOOOOOOO                ",
"                ++++@@@@@@@@@@@@@@@@@@@@@@@@@@@@@@@@@@@@@@@@@@@@@@@@@@@@@@@@@@@@@@@@@@@@@@@@@@@@@@@@@@@@OOOOOOOO                ",
"                ++++@@@@@@@@@@@@@@@@@@@@@@@@@@@@@@@@@@@@@@@@@@@@@@@@@@@@@@@@@@@@@@@@@@@@@@@@@@@@@@@@@@@@OOOOOOOO                ",
"                ++++++++++++++++++++++++++++++++++++++++++++++++++++++++++++++++++++++++++++++++++++++++OOOOOOOO                ",
"                ++++++++++++++++++++++++++++++++++++++++++++++++++++++++++++++++++++++++++++++++++++++++OOOOOOOO                ",
"                ++++++++++++++++++++++++++++++++++++++++++++++++++++++++++++++++++++++++++++++++++++++++OOOOOOOO                ",
"                ++++++++++++++++++++++++++++++++++++++++++++++++++++++++++++++++++++++++++++++++++++++++OOOOOOOO                ",
"            @@@@@@@@    oooooooooooooooooooooooooooo            oooooooooooooooooooooooooooooooo        OOOOOOOO                ",
"            @@@@@@@@    oooooooooooooooooooooooooooo            oooooooooooooooooooooooooooooooo        OOOOOOOO                ",
"            @@@@@@@@    oooooooooooooooooooooooooooo            oooooooooooooooooooooooooooooooo        OOOOOOOO                ",
"            @@@@@@@@    oooooooooooooooooooooooooooo            oooooooooooooooooooooooooooooooo        OOOOOOOO                ",
"        @@@@@@@@    oooooooooooooooooooooooooooooooo            oooooooooooooooooooooooooooooooooooo        OOOOOOOOOOOOOOOO    ",
"        @@@@@@@@    oooooooooooooooooooooooooooooooo            oooooooooooooooooooooooooooooooooooo        OOOOOOOOOOOOOOOO    ",
"        @@@@@@@@    oooooooooooooooooooooooooooooooo            oooooooooooooooooooooooooooooooooooo        OOOOOOOOOOOOOOOO    ",
"        @@@@@@@@    oooooooooooooooooooooooooooooooo            oooooooooooooooooooooooooooooooooooo        OOOOOOOOOOOOOOOO    ",
"    @@@@@@@@    oooooooooooooooooooooooooooooooo                    oooooooooooooooooooooooooooooooooooo        ........        ",
"    @@@@@@@@    oooooooooooooooooooooooooooooooo                    oooooooooooooooooooooooooooooooooooo        ........        ",
"    @@@@@@@@    oooooooooooooooooooooooooooooooo                    oooooooooooooooooooooooooooooooooooo        ........        ",
"    @@@@@@@@    oooooooooooooooooooooooooooooooo                    oooooooooooooooooooooooooooooooooooo        ........        ",
"            ....oooooooooooooooooooooooooooo                                oooooooooooooooooooooooooooooooo................    ",
"            ....oooooooooooooooooooooooooooo                                oooooooooooooooooooooooooooooooo................    ",
"            ....oooooooooooooooooooooooooooo                                oooooooooooooooooooooooooooooooo................    ",
"            ....oooooooooooooooooooooooooooo                                oooooooooooooooooooooooooooooooo................    ",
"            ............................                                            ........................................    ",
"            ............................                                            ........................................    ",
"            ............................                                            ........................................    ",
"            ............................                                            ........................................    ",
"            ................................                                        ....................................        ",
"            ................................                                        ....................................        ",
"            ................................                                        ....................................        ",
"            ................................                                        ....................................        ",
"                ............................                                            ............................            ",
"                ............................                                            ............................            ",
"                ............................                                            ............................            ",
"                ............................                                            ............................            ",
"                        ................                                                    ....................                ",
"                        ................                                                    ....................                ",
"                        ................                                                    ....................                ",
"                        ................                                                    ....................                "
};
